<svg xmlns="http://www.w3.org/2000/svg" version="1.1" viewBox="0 0 100 100"><path d="M54.1 29.4H46L65.6 9.7c9 3.8 16.4 10.9 20.7 19.6l-32.2.1z" fill="black"/><path d="M38.2 32.5L61 9.7c-9.2-3.2-19.4-2.9-28.5.7v27.8l5.7-5.7z" fill="black"/><path d="M38.3 32.5L61.1 9.7 38.3 32.5z" fill="black"/><path d="M29.3 46V13.7C20.5 18 13.5 25.4 9.7 34.4l19.7 19.7-.1-8.1z" fill="black"/><path d="M29.4 45.9V13.7v32.2z" fill="black"/><path d="M32.5 61.8L9.7 39c-3.2 9.2-2.9 19.4.7 28.5h27.8l-5.7-5.7z" fill="black"/><path d="M32.5 61.7L9.7 38.9l22.8 22.8z" fill="black"/><path d="M46 70.7H13.7c4.3 8.8 11.7 15.8 20.7 19.6l19.7-19.7-8.1.1z" fill="black"/><path d="M45.9 70.6H13.7h32.2z" fill="black"/><path d="M61.8 67.5L39 90.3c9.2 3.2 19.4 2.9 28.5-.7V61.7l-5.7 5.8z" fill="black"/><path d="M61.7 67.5L38.9 90.3l22.8-22.8z" fill="black"/><path d="M70.7 54v32.3c8.8-4.3 15.8-11.7 19.6-20.7L70.6 45.9l.1 8.1z" fill="black"/><path d="M70.6 54.1v32.3-32.3z" fill="black"/><path d="M67.5 38.2L90.3 61c3.2-9.2 2.9-19.4-.7-28.5H61.7l5.8 5.7z" fill="black"/><path d="M89.6 32.5H61.7h27.9z" fill="black"/><path d="M67.5 38.3l22.8 22.8-22.8-22.8z" fill="black"/></svg>
